<?xml version="1.0" encoding="UTF-8"?>
<!DOCTYPE svg PUBLIC "-//W3C//DTD SVG 1.0//EN" "http://www.w3.org/TR/2001/REC-SVG-20010904/DTD/svg10.dtd">
<!-- Creator: CorelDRAW -->
<svg xmlns="http://www.w3.org/2000/svg" xml:space="preserve" width="42.4887mm" height="10.766mm" version="1.0" shape-rendering="geometricPrecision" text-rendering="geometricPrecision" image-rendering="optimizeQuality" fill-rule="evenodd" clip-rule="evenodd"
viewBox="0 0 15830.04 4011.1"
 xmlns:xlink="http://www.w3.org/1999/xlink"
 xmlns:xodm="http://www.corel.com/coreldraw/odm/2003">
 <g id="Layer_x0020_1">
  <metadata id="CorelCorpID_0Corel-Layer"/>
  <g id="_2087797530848">
   <path fill="#F4F4F4" fill-rule="nonzero" d="M4108.08 82l983.03 0 0 132.64 -476.96 0 0 908.7 -149.62 0 0 -908.7 -356.44 0 0 -132.64 0 0zm728.67 356.7l0 157 7.64 -11.96c66.8,-104.69 130.81,-145.04 196.34,-145.04 51.08,0 104.43,12.44 160.06,64.01l-71.38 118.89c-47.24,-44.45 -90.94,-66.8 -131.07,-66.8 -43.7,0 -81.56,20.83 -113.56,62.48 -32,41.69 -48.02,90.98 -48.02,148.13l0 357.97 -136.17 0 0 -684.67 136.17 0 0 0zm693.61 684.67l0 -87.14c-28.99,31.22 -61.73,55.62 -98.58,72.91 -37.11,17.51 -73.92,26.15 -110.77,26.15 -42.92,0 -82.82,-10.92 -119.41,-32.53 -36.33,-21.57 -64.01,-50.82 -82.56,-87.63 -18.55,-37.11 -27.94,-98.32 -27.94,-184.2l0 -392.24 135.39 0 0 390.71c0,71.91 10.43,122.2 31,150.67 20.6,28.43 56.67,42.66 108.23,42.66 64.53,0 119.41,-31.48 164.64,-94.48l0 -489.56 135.39 0 0 684.67 -135.39 0 0 0zm138.26 -684.67l0 86.88c60.47,-66.84 129.28,-86.88 206.26,-86.88 42.7,0 82.3,-2.5 118.92,19.56 36.77,22.17 64.75,52.35 83.83,90.94 19.04,38.37 28.69,99.33 28.69,182.67l0 391.5 -135.39 0 0 -389.97c0,-70.12 -10.66,-119.93 -32,-149.89 -21.35,-30.25 -57.15,-45.23 -107.23,-45.23 -64.01,0 -118.37,32 -163.07,96.01l0 489.07 -138.48 0 0 -684.67 138.48 0 0 0zm775.65 696.6l-3.54 12.7c26.64,6.33 47.73,18.81 62.74,37.11 15.24,18.26 22.62,39.12 22.62,62.48 0,37.85 -15.01,69.86 -45.23,96.53 -30.22,26.42 -78.76,39.64 -145.3,39.64 -18.29,0 -34.31,-1.04 -48.29,-3.58l0 -84.09c25.41,1.79 41.17,2.79 47.76,2.79 28.2,0 50.3,-5.33 66.06,-16.24 9.39,-6.37 14.23,-14.98 14.23,-25.41 0,-11.96 -5.1,-21.87 -15.24,-29.73 -10.17,-7.86 -28.99,-11.92 -56.15,-11.92 -5.59,0 -11.18,0.75 -17.29,2.27l32.79 -91.47c-64.53,-14.46 -123.47,-48.25 -177.08,-101.6 -53.61,-53.35 -80.29,-133.38 -80.29,-240.08 0,-107.71 31.07,-194.56 92.99,-260.39 62.03,-65.98 143.51,-85.62 244.89,-85.62 91.17,0 109.2,-5.74 198.65,34.05l0 144.52c-68.59,-43.67 -132.08,-65.54 -190.53,-65.54 -60.95,0 -111.25,21.35 -150.37,64.27 -39.12,42.96 -58.68,97.84 -58.68,164.12 0,70.12 21.05,125.78 63.49,166.91 42.44,41.17 99.59,61.73 171.49,61.73 52.09,0 112.03,-15.24 179.36,-45.45l0 133.86c-67.85,25.41 -134.39,38.11 -199.44,38.11l-9.65 0 0 0z"/>
   <path fill="#F4F4F4" fill-rule="nonzero" d="M6647.59 675.21c0,-72.91 26.68,-130.59 79.99,-173.02 53.35,-42.4 126.26,-63.49 218.51,-63.49l281.96 0 0 105.7 -138.45 0c26.94,27.16 45.49,52.05 55.89,74.4 10.43,22.35 15.76,47.76 15.76,76.49 0,35.8 -10.17,70.86 -30.48,105.44 -20.34,34.54 -46.76,60.95 -78.5,79.25 -32,18.29 -84.61,33.01 -157.52,43.96 -51.04,7.34 -76.71,24.89 -76.71,52.83 0,15.76 9.65,28.95 28.69,39.12 19.08,10.17 53.61,20.6 103.91,31.52 83.87,18.29 137.7,32.75 161.84,43.18 24.14,10.43 45.71,25.41 65.05,44.71 32.75,32.79 49.25,73.92 49.25,123.47 0,65.01 -28.95,116.88 -86.88,155.73 -57.67,38.6 -135.13,57.9 -231.66,57.9 -97.84,0 -175.82,-19.56 -234.24,-58.42 -58.2,-38.86 -87.41,-91.21 -87.41,-156.74 0,-92.73 57.41,-152.42 171.98,-179.36 -45.71,-29.21 -68.59,-58.16 -68.59,-86.88 0,-21.83 9.91,-41.91 29.47,-59.72 19.56,-17.77 46.01,-30.96 79.28,-39.34 -100.85,-44.75 -151.15,-116.88 -151.15,-216.72l0 0zm254.54 -118.89c-36.59,0 -67.85,12.18 -93.74,37.07 -25.93,24.92 -38.64,54.66 -38.64,89.45 0,35.06 12.7,64.27 37.85,87.37 25.41,23.14 57.41,34.57 96.05,34.57 38.11,0 2.12,-11.62 27.72,-35.32 25.48,-23.58 38.11,-53.09 38.11,-88.15 0,-35.84 -12.7,-65.54 -38.6,-89.45 -25.93,-23.84 10.1,-35.54 -28.76,-35.54l0 0zm-32 599.06c-45.49,0 -82.82,9.65 -112.03,28.95 -28.99,19.3 -43.44,44.22 -43.44,74.44 0,70.64 63.49,105.7 190.53,105.7 59.95,0 106.44,-8.64 139.45,-26.42 33.05,-17.55 49.55,-42.44 49.55,-74.7 0,-31.78 -20.83,-57.67 -62.48,-77.76 -41.69,-20.04 -95.53,-30.22 -161.58,-30.22l0 0zm408.04 -1004.79c22.35,0 41.43,7.64 57.41,23.14 15.76,15.24 23.88,34.05 23.88,56.41 0,21.83 -8.12,40.87 -23.88,56.63 -15.98,16.02 -35.06,23.88 -57.41,23.88 -20.83,0 -39.12,-8.12 -54.88,-24.14 -15.98,-16.24 -23.84,-35.06 -23.84,-56.37 0,-20.86 7.86,-39.12 23.84,-55.4 15.76,-16.02 34.05,-24.14 54.88,-24.14zm-66.8 288.11l135.39 0 0 684.67 -135.39 0 0 -684.67zm209.12 -355.17l135.43 0 0 1039.84 -135.43 0 0 -1039.84z"/>
  </g>
  <path fill="#F4F4F4" fill-rule="nonzero" d="M3018.6 1423.7c-204.06,-48.51 -431.1,88.34 -648.05,174.62 -167.25,66.5 -328.53,102.98 -468.62,1.19 -269.7,-195.86 -157.15,-643.73 -403.16,-872.52 -171.53,-159.57 -442.43,-170.04 -650.36,-82.41 -221.87,93.55 -390.64,281.18 -525.18,480.84 -145.23,215.53 -260.69,455.28 -304.17,711.54 -75.82,446.94 79.66,917.75 373.05,1263.31 293.4,345.6 713.99,570.55 1156.12,670.59 199.59,45.16 405.88,66.28 609.56,46.46 395.15,-38.49 772.38,-237.18 1027.62,-541.31 221.98,-264.53 360.05,-623.39 363.33,-974.01 3.32,-352.12 -150.07,-787.91 -530.17,-878.3l0 0zm-1619.9 390.6c-22.8,16.47 -49.89,28.17 -78.02,28.5 -88.56,1.01 -134.05,-91.76 -157.78,-163.07 -20.31,-61.06 -39.94,-119.67 -77.61,-172.69 -35.99,-50.63 -83.23,-91.02 -134.91,-124.96 -41.06,-27.01 -96.79,-56.15 -119.56,-101.45 -24.4,-48.51 -30.22,-108.23 -19.86,-161.1 12.26,-62.44 51.08,-131.29 107.93,-163.41 143.14,-80.85 280.25,54.73 343.55,171.05 8.98,16.43 17.77,33.05 26.49,49.7 37.15,71.16 72.17,143.85 108.49,215.23 21.72,42.66 43.11,85.58 62,129.58 12.03,28.05 27.27,59.65 29.14,90.68 4.55,76.75 -27.53,156.93 -89.86,201.93l0 0zm0 0z"/>
  <path fill="#666666" fill-rule="nonzero" d="M1779.06 3770.86c-442.13,-100.04 -862.72,-324.99 -1156.09,-670.59 -293.4,-345.56 -448.87,-816.38 -373.05,-1263.31 43.48,-256.25 158.94,-496 304.17,-711.54 134.54,-199.66 303.31,-387.29 525.14,-480.84 48.99,-20.64 101.53,-35.77 155.36,-44.86 -129.17,-23.06 -267.88,-4.99 -386.17,44.86 -221.87,93.55 -390.64,281.18 -525.14,480.84 -145.27,215.53 -260.72,455.28 -304.2,711.54 -75.82,446.94 79.66,917.75 373.05,1263.31 293.36,345.6 713.96,570.55 1156.09,670.59 185.65,42.03 377.04,63.15 566.75,49.96 -112.96,-7.41 -225.44,-24.96 -335.91,-49.96l0 0zm0 0z"/>
  <path fill="#252B3C" fill-rule="nonzero" d="M809.52 1951.15c0,120.97 -98.06,219.03 -219.03,219.03 -120.97,0 -219.03,-98.06 -219.03,-219.03 0,-120.97 98.06,-219.03 219.03,-219.03 120.97,0 219.03,98.06 219.03,219.03zm0 0z"/>
  <path fill="#252B3C" fill-rule="nonzero" d="M1046.81 2721.52c0,120.97 -98.02,219.03 -219.03,219.03 -120.97,0 -219.03,-98.1 -219.03,-219.03 0,-120.97 98.06,-219.03 219.03,-219.03 121.01,0 219.03,98.06 219.03,219.03zm0 0z"/>
  <path fill="#252B3C" fill-rule="nonzero" d="M1710.21 3219.42c0,120.97 -98.06,219.03 -219.03,219.03 -120.94,0 -219.03,-98.06 -219.03,-219.03 0,-120.94 98.1,-219.03 219.03,-219.03 120.97,0 219.03,98.1 219.03,219.03zm0 0z"/>
  <path fill="#252B3C" fill-rule="nonzero" d="M2591.68 3255.41c0,120.97 -98.06,219.03 -219,219.03 -121.01,0 -219.03,-98.06 -219.03,-219.03 0,-120.97 98.02,-219.03 219.03,-219.03 120.94,0 219,98.06 219,219.03zm0 0z"/>
  <path fill="#FFD480" fill-rule="nonzero" d="M2990.62 1077.1c1.19,-0.04 287.03,-64.57 397.12,-159.53l24.18 -20.86c73.84,-63.71 133.86,-142.36 173.13,-231.63 63.78,-145.04 91.21,-301.07 112.14,-419.07 13.45,-75.89 16.95,-152.49 28.32,-228.42 2.65,-17.51 -19.75,-24.29 -30.33,-9.24 -106.07,150.56 -243.4,272.01 -411.62,349.32 -143.25,65.83 -539.82,78.24 -511.24,492.61l-6.22 241.09 224.51 -14.27zm0 0z"/>
  <path fill="#B3B3B3" fill-rule="nonzero" d="M2766.67 844.43l246.98 256.63c17.85,18.55 16.77,48.21 -2.42,65.42l-2791.45 2501.25c-43.03,38.9 -107.78,37.29 -145.94,-2.38 -38.11,-39.68 -37.18,-104.43 3.35,-145.94l2624.28 -2675.32c17.96,-18.29 47.47,-18.14 65.2,0.34zm0 0z"/>
  <path fill="#999999" fill-rule="nonzero" d="M308.04 3519.41l2540.52 -2589.92 -81.89 -85.1c-17.77,-18.44 -47.28,-18.59 -65.2,-0.3l-2624.28 2675.32c-40.54,41.5 -41.47,106.22 -3.35,145.94 38.15,39.68 102.9,41.28 145.94,2.38l59.02 -52.87c-6.3,-32.9 3.35,-68.93 29.25,-95.45zm0 0z"/>
  <path fill="#F2BD5F" fill-rule="nonzero" d="M3725.52 17.59c-11.36,75.97 -14.83,152.53 -28.32,228.42 -20.9,117.96 -48.36,274.03 -112.14,419.07 -39.27,89.31 -99.25,167.95 -173.13,231.63l-24.18 20.86c-110.06,95.04 -395.89,159.5 -397.12,159.57l-100.26 -104.17c60.17,-364.71 271.9,-180.03 466.01,-370.37 188.45,-184.83 299.51,-442.58 357.85,-602.15 7.15,1.68 12.7,7.94 11.29,17.14l0 0zm0 0z"/>
  <path fill="#B1F192" fill-rule="nonzero" d="M3011.23 1166.48l-191.13 171.23 -306.22 -302.42 187.59 -191.2c17.92,-18.29 47.47,-18.14 65.24,0.34l5.63 5.85 0 0.04 118.03 122.65 100.26 104.17 22.99 23.92c17.88,18.55 16.77,48.21 -2.38,65.42l0 0zm0 0z"/>
  <path fill="#A1D685" fill-rule="nonzero" d="M2846.48 927.4l-74.14 -77.08 0 -0.07 -5.63 -5.85c-17.77,-18.44 -47.28,-18.59 -65.24,-0.3l-187.59 191.17 115.16 113.75 217.43 -221.61zm0 0z"/>
  <path fill="#FEFEFE" fill-rule="nonzero" d="M5259.77 3824.81c-144.56,0 -266.46,-17.18 -365.68,-51.45 -99.25,-34.31 -183.16,-75.97 -251.78,-124.96 -68.59,-49.03 -129.84,-95.56 -183.75,-139.68l301.37 -352.82c56.37,51.45 121.91,101.08 196.64,148.84 74.74,47.76 173.36,71.68 295.86,71.68 122.5,0 229.73,-31.26 321.6,-93.74 91.88,-62.48 137.81,-153.76 137.81,-273.8l0 -227.9c-46.53,75.97 -118.81,141.5 -216.84,196.64 -98.02,55.14 -225.44,82.71 -382.26,82.71 -144.56,0 -278.68,-37.37 -402.45,-112.11 -123.73,-74.74 -222.35,-176.41 -295.86,-305.06 -73.51,-128.65 -110.24,-275.03 -110.24,-439.19 0,-169.07 39.19,-319.14 117.58,-450.25 78.43,-131.07 180.1,-234.61 305.06,-310.57 124.96,-75.97 257.3,-113.93 396.94,-113.93 139.68,0 259.76,19.6 360.2,58.79 100.45,39.23 176.41,88.22 227.86,147.02l40.42 -124.96 474.13 0 0 1606.15c0,156.81 -44.11,295.86 -132.3,417.17 -88.22,121.27 -205.21,216.84 -351,286.66 -145.79,69.86 -306.89,104.77 -483.34,104.77zm-437.36 -1635.55c0,127.42 42.88,234.61 128.65,321.6 85.77,86.96 191.13,130.47 316.09,130.47 205.81,0 354.05,-80.85 444.7,-242.58l0 -393.25c-34.28,-78.43 -90.65,-140.91 -169.07,-187.48 -78.39,-46.53 -170.26,-69.82 -275.63,-69.82 -124.96,0 -230.32,41.06 -316.09,123.13 -85.77,82.08 -128.65,188.04 -128.65,317.91zm2120.71 -779.19l40.42 367.54c46.53,-93.11 110.24,-173.36 191.09,-240.72 80.89,-67.4 160.5,-118.85 238.93,-154.36 78.39,-35.54 138.41,-53.31 180.06,-53.31l-25.71 514.56c-120.08,-14.72 -222.98,4.92 -308.75,58.79 -85.73,53.91 -151.9,124.96 -198.47,213.18 -46.53,88.22 -69.82,178.87 -69.82,271.98l0 628.49 -510.87 0 0 -1606.15 463.11 0zm768.13 0l514.56 0 0 1606.15 -514.56 0 0 -1606.15zm-11.03 -569.66c0,-75.97 29.99,-138.45 90.05,-187.44 60.02,-49.03 124.33,-73.51 192.95,-73.51 68.59,0 131.7,24.48 189.27,73.51 57.6,48.99 86.36,111.47 86.36,187.44 0,75.97 -28.76,137.81 -86.36,185.61 -57.56,47.76 -120.68,71.65 -189.27,71.65 -68.63,0 -132.93,-23.88 -192.95,-71.65 -60.06,-47.8 -90.05,-109.65 -90.05,-185.61zm1245.91 569.66l36.77 253.61c61.25,-105.36 140.27,-187.44 237.07,-246.23 96.76,-58.83 211.32,-88.22 343.62,-88.22 127.42,0 234.61,25.74 321.6,77.2 87,51.45 145.19,129.84 174.59,235.2 66.13,-93.11 146.38,-168.44 240.72,-226.04 94.33,-57.56 192.95,-86.36 295.9,-86.36 159.24,0 286.06,44.71 380.39,134.16 94.33,89.42 142.73,205.21 145.15,347.31l0 1205.53 -510.87 0 0 -992.34c-2.46,-71.05 -13.49,-129.24 -33.08,-174.59 -19.6,-45.34 -64.9,-70.45 -135.99,-75.33 -83.31,0 -153.76,28.76 -211.32,86.36 -57.6,57.56 -100.45,131.07 -128.65,220.52 -28.17,89.42 -42.25,181.93 -42.25,277.49l0 657.89 -514.56 0 0 -992.34c-2.46,-71.05 -15.31,-129.24 -38.6,-174.59 -23.29,-45.34 -70.45,-70.45 -141.5,-75.33 -80.85,0 -148.84,28.76 -203.98,86.36 -55.14,57.56 -96.79,130.47 -124.96,218.7 -28.17,88.19 -42.25,178.83 -42.25,271.98l0 665.22 -514.56 0 0 -1606.15 466.76 0zm3576.12 0l301.37 709.37 264.64 -709.37 499.84 0 -724.02 1701.72 -514.56 -1065.85 -470.44 1065.85 -731.43 -1701.72 499.88 0 297.68 679.94 224.21 -496.15 -84.54 -183.79 437.36 0zm1091.59 0l514.56 0 0 1606.15 -514.56 0 0 -1606.15zm-11.03 -569.66c0,-75.97 29.99,-138.45 90.05,-187.44 60.02,-49.03 124.33,-73.51 192.95,-73.51 68.59,0 131.7,24.48 189.27,73.51 57.6,48.99 86.36,111.47 86.36,187.44 0,75.97 -28.76,137.81 -86.36,185.61 -57.56,47.76 -120.68,71.65 -189.27,71.65 -68.63,0 -132.93,-23.88 -192.95,-71.65 -60.06,-47.8 -90.05,-109.65 -90.05,-185.61zm1029.08 988.65c-88.22,0 -165.38,-31.85 -231.55,-95.56 -66.17,-63.67 -99.25,-149.44 -99.25,-257.26l0 -220.52 385.95 0 0 51.45c0,51.45 9.17,81.48 27.53,90.05 18.4,8.57 50.86,12.85 97.43,12.85l1018.05 0 -815.93 1187.16 804.9 0 0 418.99 -1628.17 0 815.93 -1187.16 -374.88 0z"/>
  <path fill="#FEFEFE" fill-rule="nonzero" d="M6513.65 3268.93l12.41 112.96c14.34,-28.61 33.87,-53.24 58.72,-73.99 24.89,-20.71 49.37,-36.51 73.43,-47.47 24.11,-10.88 42.55,-16.36 55.36,-16.36l-7.94 158.16c-36.85,-4.51 -68.52,1.49 -94.86,18.07 -26.38,16.58 -46.68,38.41 -61.03,65.5 -14.27,27.12 -21.42,54.99 -21.42,83.6l0 193.18 -157.04 0 0 -493.66 142.36 0zm426.93 507.18c-45.9,0 -87.52,-9.2 -124.81,-27.68 -37.26,-18.44 -66.8,-46.83 -88.67,-85.28 -21.83,-38.41 -32.75,-87.33 -32.75,-146.83 0,-55.74 11.29,-103.91 33.9,-144.56 22.58,-40.72 52.31,-72.13 89.23,-94.37 36.88,-22.21 76.04,-33.31 117.47,-33.31 48.21,0 84.69,7.71 109.54,23.17 24.89,15.42 45.57,32.94 62.14,52.53l10.17 -50.86 146.83 0 0 493.66 -158.16 0 0 -60.99c-7.49,7.53 -18.59,17.32 -33.31,29.32 -14.68,12.07 -32.94,22.62 -54.77,31.67 -21.83,9.05 -47.43,13.52 -76.82,13.52zm45.19 -128.76c54.99,0 94.89,-24.85 119.71,-74.55l0 -120.86c-9.02,-24.11 -24.63,-43.33 -46.83,-57.6 -22.24,-14.31 -48.4,-21.5 -78.5,-21.5 -33.9,0 -63.26,12.63 -88.11,37.85 -24.85,25.22 -37.29,57.79 -37.29,97.73 0,26.34 6.04,50.07 18.07,71.16 12.07,21.09 28.05,37.63 48.02,49.7 19.93,12.07 41.62,18.07 64.94,18.07zm556.88 128.76c-45.94,0 -86.96,-10.73 -123.13,-32.15 -36.14,-21.5 -64.53,-52.53 -85.28,-93.22 -20.71,-40.68 -31.04,-88.86 -31.04,-144.59 0,-55.7 11.29,-103.16 33.9,-142.28 22.58,-39.19 53.46,-68.96 92.58,-89.27 39.19,-20.34 83.6,-30.51 133.31,-30.51 31.63,0 61.96,4.92 90.91,14.72 29.02,9.8 53.31,24.85 72.87,45.16l0 -432.63 157.04 0 0 891.26 -158.16 0 0 -51.97c-24.11,18.81 -51.19,34.46 -81.33,46.87 -30.1,12.44 -64.01,18.63 -101.67,18.63zm51.97 -133.31c31.59,0 57.97,-6.18 79.06,-18.59 21.12,-12.44 38.45,-31.07 51.97,-55.92l0 -120.86c-9.05,-24.11 -25.22,-43.29 -48.55,-57.6 -23.4,-14.34 -50.89,-21.5 -82.49,-21.5 -23.32,0 -45.01,5.85 -64.94,17.51 -19.97,11.7 -35.95,27.68 -48.02,47.99 -12.03,20.34 -18.07,43.7 -18.07,70.04 0,26.38 6.04,50.11 18.07,71.16 12.07,21.12 28.05,37.67 48.02,49.7 19.93,12.07 41.62,18.07 64.94,18.07zm367.09 -373.87l158.16 0 0 493.66 -158.16 0 0 -493.66zm-3.39 -175.07c0,-23.36 9.24,-42.55 27.68,-57.64 18.44,-15.05 38.23,-22.58 59.31,-22.58 21.09,0 40.5,7.53 58.2,22.58 17.66,15.09 26.49,34.28 26.49,57.64 0,23.32 -8.83,42.36 -26.49,57.04 -17.7,14.68 -37.11,22.06 -58.2,22.06 -21.09,0 -40.87,-7.38 -59.31,-22.06 -18.44,-14.68 -27.68,-33.72 -27.68,-57.04zm482.37 682.25c-60.24,0 -111.25,-11.29 -153.09,-33.87 -41.8,-22.58 -73.58,-53.84 -95.45,-93.74 -21.83,-39.94 -32.75,-85.84 -32.75,-137.81 0,-49.74 12.82,-94.52 38.41,-134.46 25.63,-39.87 59.87,-71.72 102.79,-95.42 42.92,-23.73 90.72,-35.62 143.44,-35.62 70.79,0 128.95,20.57 174.55,61.59 45.57,41.02 75.11,100.37 88.67,177.94l-361.47 115.16c24.11,27.87 56.85,41.84 98.25,41.84 17.32,0 34.09,-3.02 50.3,-9.05 16.21,-6.04 32.19,-13.93 47.99,-23.73l70.04 117.51c-26.34,15.05 -54.81,27.09 -85.28,36.14 -30.51,9.05 -59.28,13.52 -86.4,13.52zm-125.41 -264.34l216.87 -73.4c-6.74,-18.81 -17.7,-35.21 -32.75,-49.1 -15.05,-13.97 -37.67,-20.94 -67.77,-20.94 -35.39,0 -63.64,12.07 -84.72,36.18 -21.09,24.07 -31.63,56.44 -31.63,97.13 0,2.98 0,6.41 0,10.13zm565.9 -242.84l11.33 79.06c17.32,-30.85 41.77,-55.7 73.4,-74.51 31.67,-18.85 70.04,-28.28 115.24,-28.28 46.68,0 85.65,13.79 116.88,41.24 31.3,27.5 47.28,63.08 48.02,106.74l0 369.4 -158.12 0 0 -310.65c-0.78,-21.83 -6.59,-39.34 -17.51,-52.53 -10.95,-13.19 -29.17,-19.75 -54.81,-19.75 -36.88,0 -66.06,17.14 -87.52,51.38 -21.5,34.28 -32.23,77.76 -32.23,130.47l0 201.08 -158.16 0 0 -493.66 143.48 0zm489.15 -216.87l158.12 0 0 214.64 119.74 0 0 123.13 -119.74 0 0 372.76 -158.12 0 0 -372.76 -76.86 0 0 -123.13 76.86 0 0 -214.64zm460.83 216.87l158.12 0 0 493.66 -158.12 0 0 -493.66zm-3.39 -175.07c0,-23.36 9.24,-42.55 27.68,-57.64 18.44,-15.05 38.19,-22.58 59.31,-22.58 21.09,0 40.46,7.53 58.16,22.58 17.7,15.09 26.53,34.28 26.53,57.64 0,23.32 -8.83,42.36 -26.53,57.04 -17.7,14.68 -37.07,22.06 -58.16,22.06 -21.12,0 -40.87,-7.38 -59.31,-22.06 -18.44,-14.68 -27.68,-33.72 -27.68,-57.04zm382.93 175.07l11.33 77.94c18.78,-32.38 43.11,-57.6 72.84,-75.67 29.77,-18.07 64.98,-27.12 105.62,-27.12 39.12,0 72.09,7.9 98.84,23.73 26.75,15.83 44.6,39.9 53.61,72.28 20.34,-28.58 45.01,-51.79 74.03,-69.48 28.99,-17.7 59.28,-26.53 90.91,-26.53 48.96,0 87.93,13.75 116.91,41.24 29.02,27.46 43.89,63.04 44.63,106.74l0 370.52 -157 0 0 -304.99c-0.78,-21.87 -4.17,-39.75 -10.17,-53.69 -6.04,-13.9 -19.97,-21.65 -41.8,-23.14 -25.6,0 -47.28,8.87 -64.98,26.56 -17.7,17.66 -30.85,40.27 -39.49,67.77 -8.68,27.5 -13.04,55.89 -13.04,85.28l0 202.19 -158.08 0 0 -304.99c-0.78,-21.87 -4.73,-39.75 -11.89,-53.69 -7.15,-13.9 -21.65,-21.65 -43.48,-23.14 -24.85,0 -45.79,8.87 -62.7,26.56 -16.95,17.66 -29.73,40.09 -38.41,67.21 -8.64,27.09 -13,54.92 -13,83.57l0 204.47 -158.16 0 0 -493.66 143.48 0zm954.49 507.18c-45.94,0 -87.55,-9.2 -124.85,-27.68 -37.22,-18.44 -66.8,-46.83 -88.63,-85.28 -21.87,-38.41 -32.79,-87.33 -32.79,-146.83 0,-55.74 11.33,-103.91 33.9,-144.56 22.62,-40.72 52.31,-72.13 89.23,-94.37 36.92,-22.21 76.04,-33.31 117.51,-33.31 48.17,0 84.69,7.71 109.54,23.17 24.85,15.42 45.57,32.94 62.14,52.53l10.17 -50.86 146.83 0 0 493.66 -158.16 0 0 -60.99c-7.49,7.53 -18.63,17.32 -33.31,29.32 -14.72,12.07 -32.94,22.62 -54.81,31.67 -21.8,9.05 -47.39,13.52 -76.79,13.52zm45.19 -128.76c54.95,0 94.89,-24.85 119.71,-74.55l0 -120.86c-9.02,-24.11 -24.63,-43.33 -46.87,-57.6 -22.21,-14.31 -48.36,-21.5 -78.5,-21.5 -33.9,0 -63.23,12.63 -88.08,37.85 -24.89,25.22 -37.29,57.79 -37.29,97.73 0,26.34 6,50.07 18.07,71.16 12.03,21.09 28.05,37.63 47.99,49.7 19.97,12.07 41.62,18.07 64.98,18.07zm611.09 363.74c-44.45,0 -81.89,-5.25 -112.4,-15.83 -30.48,-10.54 -56.26,-23.32 -77.38,-38.41 -21.05,-15.05 -39.87,-29.32 -56.44,-42.92l92.62 -108.42c17.32,15.8 37.48,31.04 60.43,45.71 22.95,14.72 53.28,22.06 90.94,22.06 37.63,0 70.56,-9.61 98.81,-28.8 28.24,-19.22 42.36,-47.24 42.36,-84.16l0 -70.04c-14.31,23.36 -36.47,43.52 -66.62,60.43 -30.14,16.95 -69.3,25.41 -117.47,25.41 -44.45,0 -85.69,-11.48 -123.69,-34.43 -38.04,-22.95 -68.33,-54.25 -90.94,-93.78 -22.58,-39.53 -33.9,-84.5 -33.9,-134.98 0,-51.97 12.07,-98.06 36.14,-138.37 24.11,-40.27 55.36,-72.09 93.78,-95.45 38.41,-23.32 79.06,-35.02 121.98,-35.02 42.92,0 79.84,6.04 110.69,18.07 30.89,12.07 54.25,27.12 70.04,45.19l12.44 -38.41 145.71 0 0 493.66c0,48.17 -13.52,90.91 -40.65,128.2 -27.12,37.29 -63.08,66.62 -107.9,88.11 -44.82,21.46 -94.33,32.19 -148.54,32.19zm-134.42 -502.67c0,39.16 13.19,72.13 39.53,98.84 26.38,26.71 58.75,40.09 97.17,40.09 63.26,0 108.83,-24.85 136.66,-74.55l0 -120.86c-10.51,-24.11 -27.83,-43.33 -51.97,-57.6 -24.07,-14.31 -52.31,-21.5 -84.69,-21.5 -38.41,0 -70.79,12.63 -97.17,37.85 -26.34,25.22 -39.53,57.79 -39.53,97.73zm752.29 267.69c-60.24,0 -111.25,-11.29 -153.05,-33.87 -41.8,-22.58 -73.62,-53.84 -95.45,-93.74 -21.87,-39.94 -32.75,-85.84 -32.75,-137.81 0,-49.74 12.78,-94.52 38.37,-134.46 25.63,-39.87 59.87,-71.72 102.79,-95.42 42.92,-23.73 90.76,-35.62 143.48,-35.62 70.79,0 128.95,20.57 174.55,61.59 45.53,41.02 75.07,100.37 88.67,177.94l-361.51 115.16c24.11,27.87 56.89,41.84 98.28,41.84 17.32,0 34.09,-3.02 50.26,-9.05 16.21,-6.04 32.19,-13.93 47.99,-23.73l70.04 117.51c-26.34,15.05 -54.77,27.09 -85.28,36.14 -30.48,9.05 -59.28,13.52 -86.4,13.52zm-125.37 -264.34l216.87 -73.4c-6.78,-18.81 -17.7,-35.21 -32.79,-49.1 -15.05,-13.97 -37.63,-20.94 -67.77,-20.94 -35.39,0 -63.6,12.07 -84.69,36.18 -21.12,24.07 -31.63,56.44 -31.63,97.13 0,2.98 0,6.41 0,10.13zm921.67 -242.84l92.66 217.99 81.33 -217.99 153.65 0 -222.57 523.01 -158.12 -327.6 -144.59 327.6 -224.81 -523.01 153.65 0 91.5 208.97 68.89 -152.49 -25.97 -56.48 134.39 0zm335.5 0l158.16 0 0 493.66 -158.16 0 0 -493.66zm-3.39 -175.07c0,-23.36 9.24,-42.55 27.68,-57.64 18.44,-15.05 38.23,-22.58 59.31,-22.58 21.09,0 40.5,7.53 58.2,22.58 17.66,15.09 26.49,34.28 26.49,57.64 0,23.32 -8.83,42.36 -26.49,57.04 -17.7,14.68 -37.11,22.06 -58.2,22.06 -21.09,0 -40.87,-7.38 -59.31,-22.06 -18.44,-14.68 -27.68,-33.72 -27.68,-57.04zm316.31 303.87c-27.12,0 -50.82,-9.8 -71.16,-29.4 -20.38,-19.56 -30.51,-45.94 -30.51,-79.06l0 -67.77 118.63 0 0 15.8c0,15.83 2.83,25.04 8.46,27.68 5.63,2.65 15.61,3.95 29.92,3.95l312.88 0 -250.74 364.86 247.39 0 0 128.8 -500.44 0 250.81 -364.86 -115.24 0zm635.94 378.38c-45.94,0 -87.55,-9.2 -124.85,-27.68 -37.26,-18.44 -66.8,-46.83 -88.67,-85.28 -21.83,-38.41 -32.75,-87.33 -32.75,-146.83 0,-55.74 11.33,-103.91 33.9,-144.56 22.58,-40.72 52.31,-72.13 89.23,-94.37 36.92,-22.21 76.04,-33.31 117.47,-33.31 48.21,0 84.69,7.71 109.57,23.17 24.85,15.42 45.53,32.94 62.11,52.53l10.17 -50.86 146.83 0 0 493.66 -158.12 0 0 -60.99c-7.53,7.53 -18.63,17.32 -33.35,29.32 -14.68,12.07 -32.94,22.62 -54.77,31.67 -21.83,9.05 -47.43,13.52 -76.79,13.52zm45.16 -128.76c54.99,0 94.89,-24.85 119.74,-74.55l0 -120.86c-9.02,-24.11 -24.66,-43.33 -46.87,-57.6 -22.21,-14.31 -48.36,-21.5 -78.5,-21.5 -33.9,0 -63.26,12.63 -88.11,37.85 -24.85,25.22 -37.29,57.79 -37.29,97.73 0,26.34 6.04,50.07 18.07,71.16 12.07,21.09 28.05,37.63 48.02,49.7 19.97,12.07 41.62,18.07 64.94,18.07zm498.16 -378.42l12.44 112.96c14.31,-28.61 33.87,-53.24 58.72,-73.99 24.85,-20.71 49.33,-36.51 73.4,-47.47 24.14,-10.88 42.55,-16.36 55.36,-16.36l-7.9 158.16c-36.88,-4.51 -68.52,1.49 -94.86,18.07 -26.38,16.58 -46.72,38.41 -61.03,65.5 -14.27,27.12 -21.46,54.99 -21.46,83.6l0 193.18 -157.04 0 0 -493.66 142.36 0zm414.52 507.18c-45.9,0 -86.96,-10.73 -123.13,-32.15 -36.1,-21.5 -64.53,-52.53 -85.28,-93.22 -20.68,-40.68 -31.04,-88.86 -31.04,-144.59 0,-55.7 11.33,-103.16 33.9,-142.28 22.58,-39.19 53.46,-68.96 92.58,-89.27 39.19,-20.34 83.64,-30.51 133.31,-30.51 31.63,0 61.96,4.92 90.91,14.72 29.02,9.8 53.31,24.85 72.87,45.16l0 -432.63 157.04 0 0 891.26 -158.16 0 0 -51.97c-24.11,18.81 -51.19,34.46 -81.29,46.87 -30.14,12.44 -64.04,18.63 -101.71,18.63zm51.97 -133.31c31.63,0 58.01,-6.18 79.06,-18.59 21.12,-12.44 38.45,-31.07 51.97,-55.92l0 -120.86c-9.05,-24.11 -25.22,-43.29 -48.55,-57.6 -23.4,-14.34 -50.86,-21.5 -82.49,-21.5 -23.32,0 -45.01,5.85 -64.94,17.51 -19.97,11.7 -35.95,27.68 -48.02,47.99 -12.03,20.34 -18.07,43.7 -18.07,70.04 0,26.38 6.04,50.11 18.07,71.16 12.07,21.12 28.05,37.67 48.02,49.7 19.93,12.07 41.62,18.07 64.94,18.07z"/>
 </g>
</svg>
